{
	"asset":{
		"generator":"Khronos glTF Blender I/O v4.3.47",
		"version":"2.0"
	},
	"scene":0,
	"scenes":[
		{
			"name":"Scene",
			"nodes":[
				14
			]
		}
	],
	"nodes":[
		{
			"name":"LowerArm.l",
			"rotation":[
				-2.6585531553990904e-09,
				2.238883922700552e-08,
				-0.009732481092214584,
				0.9999526739120483
			],
			"scale":[
				0.9999999403953552,
				0.9999998807907104,
				1
			],
			"translation":[
				-1.0184294296777807e-07,
				0.7484716176986694,
				2.2756707949156407e-06
			]
		},
		{
			"children":[
				0
			],
			"name":"UpperArm.l",
			"rotation":[
				3.172810991713959e-08,
				-3.182626429065749e-08,
				0.1204121932387352,
				0.9927240014076233
			],
			"translation":[
				1.4334168554341886e-06,
				1.0240199565887451,
				-3.0332289497891907e-06
			]
		},
		{
			"children":[
				1
			],
			"name":"Shoulder.l",
			"rotation":[
				-4.872339687267413e-08,
				-1.9480799196003318e-08,
				-0.782515823841095,
				0.6226307153701782
			],
			"translation":[
				1.6990616131806746e-06,
				1,
				-1.8788005036185496e-06
			]
		},
		{
			"name":"LowerLeg.l",
			"rotation":[
				1.7763568394002505e-15,
				-1.4210854715202004e-14,
				3.6846727298950116e-17,
				1
			],
			"translation":[
				-1.2789769243681803e-12,
				1.008933186531067,
				-8.363556958101981e-07
			]
		},
		{
			"children":[
				3
			],
			"name":"UpperLeg.l",
			"rotation":[
				-0.6498104929924011,
				4.73538150913555e-08,
				2.276741684070771e-09,
				0.7600963115692139
			],
			"scale":[
				1,
				1.0000001192092896,
				1
			],
			"translation":[
				-5.855956146660901e-07,
				0.6060821413993835,
				3.07966956825112e-07
			]
		},
		{
			"children":[
				4
			],
			"name":"Hip.l",
			"rotation":[
				-0.5374693274497986,
				-0.45948535203933716,
				-0.537469208240509,
				0.4594852924346924
			],
			"scale":[
				1,
				0.9999999403953552,
				1
			],
			"translation":[
				1.6990616131806746e-06,
				0,
				-1.8788005036185496e-06
			]
		},
		{
			"name":"LowerArm.r",
			"rotation":[
				-2.6585531553990904e-09,
				-2.2388842779719198e-08,
				0.009732482023537159,
				0.9999526739120483
			],
			"scale":[
				0.9999999403953552,
				0.9999998807907104,
				1
			],
			"translation":[
				9.257655619876459e-08,
				0.7484682202339172,
				-1.303884687331447e-06
			]
		},
		{
			"children":[
				6
			],
			"name":"UpperArm.r",
			"rotation":[
				3.172810636442591e-08,
				3.182626429065749e-08,
				-0.1204121932387352,
				0.9927240014076233
			],
			"translation":[
				1.8733976503426675e-07,
				1.0240204334259033,
				-9.659081001700542e-08
			]
		},
		{
			"children":[
				7
			],
			"name":"Shoulder.r",
			"rotation":[
				-4.872338976724677e-08,
				1.9480799196003318e-08,
				0.782515823841095,
				0.6226307153701782
			],
			"translation":[
				1.6990616131806746e-06,
				1,
				-1.8788005036185496e-06
			]
		},
		{
			"name":"LowerLeg.r",
			"rotation":[
				1.6924142861405732e-15,
				1.4210854715202004e-14,
				7.50344136325222e-18,
				1
			],
			"translation":[
				-4.756657290272415e-09,
				1.0089333057403564,
				-4.197818270768039e-07
			]
		},
		{
			"children":[
				9
			],
			"name":"UpperLeg.r",
			"rotation":[
				-0.6498104929924011,
				-4.735381153864182e-08,
				-2.276741684070771e-09,
				0.7600963115692139
			],
			"scale":[
				1,
				1.0000001192092896,
				1
			],
			"translation":[
				-9.343092415292631e-07,
				0.6060788035392761,
				2.564199803600786e-07
			]
		},
		{
			"children":[
				10
			],
			"name":"Hip.r",
			"rotation":[
				-0.5374693274497986,
				0.45948535203933716,
				0.537469208240509,
				0.4594852924346924
			],
			"scale":[
				1,
				0.9999999403953552,
				1
			],
			"translation":[
				1.6990616131806746e-06,
				0,
				-1.8788005036185496e-06
			]
		},
		{
			"children":[
				2,
				5,
				8,
				11
			],
			"name":"Body",
			"translation":[
				1.6990616131806746e-06,
				1.9254778623580933,
				-1.8788005036185496e-06
			]
		},
		{
			"mesh":0,
			"name":"Cube Man",
			"skin":0
		},
		{
			"children":[
				13,
				12
			],
			"name":"Animation",
			"rotation":[
				0,
				0.7071068286895752,
				0,
				0.7071068286895752
			],
			"translation":[
				-38.869998931884766,
				0.178687185049057,
				-44.28815460205078
			]
		}
	],
	"animations":[
		{
			"channels":[
				{
					"sampler":0,
					"target":{
						"node":12,
						"path":"translation"
					}
				},
				{
					"sampler":1,
					"target":{
						"node":12,
						"path":"rotation"
					}
				},
				{
					"sampler":2,
					"target":{
						"node":12,
						"path":"scale"
					}
				},
				{
					"sampler":3,
					"target":{
						"node":2,
						"path":"translation"
					}
				},
				{
					"sampler":4,
					"target":{
						"node":2,
						"path":"rotation"
					}
				},
				{
					"sampler":5,
					"target":{
						"node":2,
						"path":"scale"
					}
				},
				{
					"sampler":6,
					"target":{
						"node":1,
						"path":"translation"
					}
				},
				{
					"sampler":7,
					"target":{
						"node":1,
						"path":"rotation"
					}
				},
				{
					"sampler":8,
					"target":{
						"node":1,
						"path":"scale"
					}
				},
				{
					"sampler":9,
					"target":{
						"node":0,
						"path":"translation"
					}
				},
				{
					"sampler":10,
					"target":{
						"node":0,
						"path":"rotation"
					}
				},
				{
					"sampler":11,
					"target":{
						"node":0,
						"path":"scale"
					}
				},
				{
					"sampler":12,
					"target":{
						"node":5,
						"path":"translation"
					}
				},
				{
					"sampler":13,
					"target":{
						"node":5,
						"path":"rotation"
					}
				},
				{
					"sampler":14,
					"target":{
						"node":5,
						"path":"scale"
					}
				},
				{
					"sampler":15,
					"target":{
						"node":4,
						"path":"translation"
					}
				},
				{
					"sampler":16,
					"target":{
						"node":4,
						"path":"rotation"
					}
				},
				{
					"sampler":17,
					"target":{
						"node":4,
						"path":"scale"
					}
				},
				{
					"sampler":18,
					"target":{
						"node":3,
						"path":"translation"
					}
				},
				{
					"sampler":19,
					"target":{
						"node":3,
						"path":"rotation"
					}
				},
				{
					"sampler":20,
					"target":{
						"node":3,
						"path":"scale"
					}
				},
				{
					"sampler":21,
					"target":{
						"node":8,
						"path":"translation"
					}
				},
				{
					"sampler":22,
					"target":{
						"node":8,
						"path":"rotation"
					}
				},
				{
					"sampler":23,
					"target":{
						"node":8,
						"path":"scale"
					}
				},
				{
					"sampler":24,
					"target":{
						"node":7,
						"path":"translation"
					}
				},
				{
					"sampler":25,
					"target":{
						"node":7,
						"path":"rotation"
					}
				},
				{
					"sampler":26,
					"target":{
						"node":7,
						"path":"scale"
					}
				},
				{
					"sampler":27,
					"target":{
						"node":6,
						"path":"translation"
					}
				},
				{
					"sampler":28,
					"target":{
						"node":6,
						"path":"rotation"
					}
				},
				{
					"sampler":29,
					"target":{
						"node":6,
						"path":"scale"
					}
				},
				{
					"sampler":30,
					"target":{
						"node":11,
						"path":"translation"
					}
				},
				{
					"sampler":31,
					"target":{
						"node":11,
						"path":"rotation"
					}
				},
				{
					"sampler":32,
					"target":{
						"node":11,
						"path":"scale"
					}
				},
				{
					"sampler":33,
					"target":{
						"node":10,
						"path":"translation"
					}
				},
				{
					"sampler":34,
					"target":{
						"node":10,
						"path":"rotation"
					}
				},
				{
					"sampler":35,
					"target":{
						"node":10,
						"path":"scale"
					}
				},
				{
					"sampler":36,
					"target":{
						"node":9,
						"path":"translation"
					}
				},
				{
					"sampler":37,
					"target":{
						"node":9,
						"path":"rotation"
					}
				},
				{
					"sampler":38,
					"target":{
						"node":9,
						"path":"scale"
					}
				}
			],
			"name":"ArmatureAction.003",
			"samplers":[
				{
					"input":7,
					"interpolation":"LINEAR",
					"output":8
				},
				{
					"input":7,
					"interpolation":"LINEAR",
					"output":9
				},
				{
					"input":10,
					"interpolation":"STEP",
					"output":11
				},
				{
					"input":10,
					"interpolation":"LINEAR",
					"output":12
				},
				{
					"input":10,
					"interpolation":"LINEAR",
					"output":13
				},
				{
					"input":10,
					"interpolation":"STEP",
					"output":14
				},
				{
					"input":10,
					"interpolation":"LINEAR",
					"output":15
				},
				{
					"input":10,
					"interpolation":"LINEAR",
					"output":16
				},
				{
					"input":10,
					"interpolation":"STEP",
					"output":17
				},
				{
					"input":10,
					"interpolation":"LINEAR",
					"output":18
				},
				{
					"input":10,
					"interpolation":"LINEAR",
					"output":19
				},
				{
					"input":10,
					"interpolation":"STEP",
					"output":20
				},
				{
					"input":10,
					"interpolation":"LINEAR",
					"output":21
				},
				{
					"input":7,
					"interpolation":"LINEAR",
					"output":22
				},
				{
					"input":10,
					"interpolation":"STEP",
					"output":23
				},
				{
					"input":10,
					"interpolation":"LINEAR",
					"output":24
				},
				{
					"input":10,
					"interpolation":"LINEAR",
					"output":25
				},
				{
					"input":10,
					"interpolation":"STEP",
					"output":26
				},
				{
					"input":10,
					"interpolation":"LINEAR",
					"output":27
				},
				{
					"input":10,
					"interpolation":"LINEAR",
					"output":28
				},
				{
					"input":10,
					"interpolation":"STEP",
					"output":29
				},
				{
					"input":10,
					"interpolation":"LINEAR",
					"output":30
				},
				{
					"input":10,
					"interpolation":"LINEAR",
					"output":31
				},
				{
					"input":10,
					"interpolation":"STEP",
					"output":32
				},
				{
					"input":10,
					"interpolation":"LINEAR",
					"output":33
				},
				{
					"input":7,
					"interpolation":"LINEAR",
					"output":34
				},
				{
					"input":10,
					"interpolation":"STEP",
					"output":35
				},
				{
					"input":10,
					"interpolation":"LINEAR",
					"output":36
				},
				{
					"input":10,
					"interpolation":"LINEAR",
					"output":37
				},
				{
					"input":10,
					"interpolation":"STEP",
					"output":38
				},
				{
					"input":10,
					"interpolation":"LINEAR",
					"output":39
				},
				{
					"input":7,
					"interpolation":"LINEAR",
					"output":40
				},
				{
					"input":10,
					"interpolation":"STEP",
					"output":41
				},
				{
					"input":10,
					"interpolation":"LINEAR",
					"output":42
				},
				{
					"input":10,
					"interpolation":"LINEAR",
					"output":43
				},
				{
					"input":10,
					"interpolation":"STEP",
					"output":44
				},
				{
					"input":10,
					"interpolation":"LINEAR",
					"output":45
				},
				{
					"input":10,
					"interpolation":"LINEAR",
					"output":46
				},
				{
					"input":10,
					"interpolation":"STEP",
					"output":47
				}
			]
		}
	],
	"meshes":[
		{
			"name":"Cube",
			"primitives":[
				{
					"attributes":{
						"POSITION":0,
						"NORMAL":1,
						"TEXCOORD_0":2,
						"JOINTS_0":3,
						"WEIGHTS_0":4
					},
					"indices":5
				}
			]
		}
	],
	"skins":[
		{
			"inverseBindMatrices":6,
			"joints":[
				12,
				2,
				1,
				0,
				5,
				4,
				3,
				8,
				7,
				6,
				11,
				10,
				9
			],
			"name":"Animation"
		}
	],
	"accessors":[
		{
			"bufferView":0,
			"componentType":5126,
			"count":2745,
			"max":[
				-38.27000045776367,
				3.67868709564209,
				-41.88232421875
			],
			"min":[
				-39.46999740600586,
				0.18884512782096863,
				-46.69398498535156
			],
			"type":"VEC3"
		},
		{
			"bufferView":1,
			"componentType":5126,
			"count":2745,
			"type":"VEC3"
		},
		{
			"bufferView":2,
			"componentType":5126,
			"count":2745,
			"type":"VEC2"
		},
		{
			"bufferView":3,
			"componentType":5121,
			"count":2745,
			"type":"VEC4"
		},
		{
			"bufferView":4,
			"componentType":5126,
			"count":2745,
			"type":"VEC4"
		},
		{
			"bufferView":5,
			"componentType":5123,
			"count":12036,
			"type":"SCALAR"
		},
		{
			"bufferView":6,
			"componentType":5126,
			"count":13,
			"type":"MAT4"
		},
		{
			"bufferView":7,
			"componentType":5126,
			"count":641,
			"max":[
				26.666666666666668
			],
			"min":[
				0
			],
			"type":"SCALAR"
		},
		{
			"bufferView":8,
			"componentType":5126,
			"count":641,
			"type":"VEC3"
		},
		{
			"bufferView":9,
			"componentType":5126,
			"count":641,
			"type":"VEC4"
		},
		{
			"bufferView":10,
			"componentType":5126,
			"count":2,
			"max":[
				26.666666666666668
			],
			"min":[
				0
			],
			"type":"SCALAR"
		},
		{
			"bufferView":11,
			"componentType":5126,
			"count":2,
			"type":"VEC3"
		},
		{
			"bufferView":12,
			"componentType":5126,
			"count":2,
			"type":"VEC3"
		},
		{
			"bufferView":13,
			"componentType":5126,
			"count":2,
			"type":"VEC4"
		},
		{
			"bufferView":14,
			"componentType":5126,
			"count":2,
			"type":"VEC3"
		},
		{
			"bufferView":15,
			"componentType":5126,
			"count":2,
			"type":"VEC3"
		},
		{
			"bufferView":16,
			"componentType":5126,
			"count":2,
			"type":"VEC4"
		},
		{
			"bufferView":17,
			"componentType":5126,
			"count":2,
			"type":"VEC3"
		},
		{
			"bufferView":18,
			"componentType":5126,
			"count":2,
			"type":"VEC3"
		},
		{
			"bufferView":19,
			"componentType":5126,
			"count":2,
			"type":"VEC4"
		},
		{
			"bufferView":20,
			"componentType":5126,
			"count":2,
			"type":"VEC3"
		},
		{
			"bufferView":21,
			"componentType":5126,
			"count":2,
			"type":"VEC3"
		},
		{
			"bufferView":22,
			"componentType":5126,
			"count":641,
			"type":"VEC4"
		},
		{
			"bufferView":23,
			"componentType":5126,
			"count":2,
			"type":"VEC3"
		},
		{
			"bufferView":24,
			"componentType":5126,
			"count":2,
			"type":"VEC3"
		},
		{
			"bufferView":25,
			"componentType":5126,
			"count":2,
			"type":"VEC4"
		},
		{
			"bufferView":26,
			"componentType":5126,
			"count":2,
			"type":"VEC3"
		},
		{
			"bufferView":27,
			"componentType":5126,
			"count":2,
			"type":"VEC3"
		},
		{
			"bufferView":28,
			"componentType":5126,
			"count":2,
			"type":"VEC4"
		},
		{
			"bufferView":29,
			"componentType":5126,
			"count":2,
			"type":"VEC3"
		},
		{
			"bufferView":30,
			"componentType":5126,
			"count":2,
			"type":"VEC3"
		},
		{
			"bufferView":31,
			"componentType":5126,
			"count":2,
			"type":"VEC4"
		},
		{
			"bufferView":32,
			"componentType":5126,
			"count":2,
			"type":"VEC3"
		},
		{
			"bufferView":33,
			"componentType":5126,
			"count":2,
			"type":"VEC3"
		},
		{
			"bufferView":34,
			"componentType":5126,
			"count":641,
			"type":"VEC4"
		},
		{
			"bufferView":35,
			"componentType":5126,
			"count":2,
			"type":"VEC3"
		},
		{
			"bufferView":36,
			"componentType":5126,
			"count":2,
			"type":"VEC3"
		},
		{
			"bufferView":37,
			"componentType":5126,
			"count":2,
			"type":"VEC4"
		},
		{
			"bufferView":38,
			"componentType":5126,
			"count":2,
			"type":"VEC3"
		},
		{
			"bufferView":39,
			"componentType":5126,
			"count":2,
			"type":"VEC3"
		},
		{
			"bufferView":40,
			"componentType":5126,
			"count":641,
			"type":"VEC4"
		},
		{
			"bufferView":41,
			"componentType":5126,
			"count":2,
			"type":"VEC3"
		},
		{
			"bufferView":42,
			"componentType":5126,
			"count":2,
			"type":"VEC3"
		},
		{
			"bufferView":43,
			"componentType":5126,
			"count":2,
			"type":"VEC4"
		},
		{
			"bufferView":44,
			"componentType":5126,
			"count":2,
			"type":"VEC3"
		},
		{
			"bufferView":45,
			"componentType":5126,
			"count":2,
			"type":"VEC3"
		},
		{
			"bufferView":46,
			"componentType":5126,
			"count":2,
			"type":"VEC4"
		},
		{
			"bufferView":47,
			"componentType":5126,
			"count":2,
			"type":"VEC3"
		}
	],
	"bufferViews":[
		{
			"buffer":0,
			"byteLength":32940,
			"byteOffset":0,
			"target":34962
		},
		{
			"buffer":0,
			"byteLength":32940,
			"byteOffset":32940,
			"target":34962
		},
		{
			"buffer":0,
			"byteLength":21960,
			"byteOffset":65880,
			"target":34962
		},
		{
			"buffer":0,
			"byteLength":10980,
			"byteOffset":87840,
			"target":34962
		},
		{
			"buffer":0,
			"byteLength":43920,
			"byteOffset":98820,
			"target":34962
		},
		{
			"buffer":0,
			"byteLength":24072,
			"byteOffset":142740,
			"target":34963
		},
		{
			"buffer":0,
			"byteLength":832,
			"byteOffset":166812
		},
		{
			"buffer":0,
			"byteLength":2564,
			"byteOffset":167644
		},
		{
			"buffer":0,
			"byteLength":7692,
			"byteOffset":170208
		},
		{
			"buffer":0,
			"byteLength":10256,
			"byteOffset":177900
		},
		{
			"buffer":0,
			"byteLength":8,
			"byteOffset":188156
		},
		{
			"buffer":0,
			"byteLength":24,
			"byteOffset":188164
		},
		{
			"buffer":0,
			"byteLength":24,
			"byteOffset":188188
		},
		{
			"buffer":0,
			"byteLength":32,
			"byteOffset":188212
		},
		{
			"buffer":0,
			"byteLength":24,
			"byteOffset":188244
		},
		{
			"buffer":0,
			"byteLength":24,
			"byteOffset":188268
		},
		{
			"buffer":0,
			"byteLength":32,
			"byteOffset":188292
		},
		{
			"buffer":0,
			"byteLength":24,
			"byteOffset":188324
		},
		{
			"buffer":0,
			"byteLength":24,
			"byteOffset":188348
		},
		{
			"buffer":0,
			"byteLength":32,
			"byteOffset":188372
		},
		{
			"buffer":0,
			"byteLength":24,
			"byteOffset":188404
		},
		{
			"buffer":0,
			"byteLength":24,
			"byteOffset":188428
		},
		{
			"buffer":0,
			"byteLength":10256,
			"byteOffset":188452
		},
		{
			"buffer":0,
			"byteLength":24,
			"byteOffset":198708
		},
		{
			"buffer":0,
			"byteLength":24,
			"byteOffset":198732
		},
		{
			"buffer":0,
			"byteLength":32,
			"byteOffset":198756
		},
		{
			"buffer":0,
			"byteLength":24,
			"byteOffset":198788
		},
		{
			"buffer":0,
			"byteLength":24,
			"byteOffset":198812
		},
		{
			"buffer":0,
			"byteLength":32,
			"byteOffset":198836
		},
		{
			"buffer":0,
			"byteLength":24,
			"byteOffset":198868
		},
		{
			"buffer":0,
			"byteLength":24,
			"byteOffset":198892
		},
		{
			"buffer":0,
			"byteLength":32,
			"byteOffset":198916
		},
		{
			"buffer":0,
			"byteLength":24,
			"byteOffset":198948
		},
		{
			"buffer":0,
			"byteLength":24,
			"byteOffset":198972
		},
		{
			"buffer":0,
			"byteLength":10256,
			"byteOffset":198996
		},
		{
			"buffer":0,
			"byteLength":24,
			"byteOffset":209252
		},
		{
			"buffer":0,
			"byteLength":24,
			"byteOffset":209276
		},
		{
			"buffer":0,
			"byteLength":32,
			"byteOffset":209300
		},
		{
			"buffer":0,
			"byteLength":24,
			"byteOffset":209332
		},
		{
			"buffer":0,
			"byteLength":24,
			"byteOffset":209356
		},
		{
			"buffer":0,
			"byteLength":10256,
			"byteOffset":209380
		},
		{
			"buffer":0,
			"byteLength":24,
			"byteOffset":219636
		},
		{
			"buffer":0,
			"byteLength":24,
			"byteOffset":219660
		},
		{
			"buffer":0,
			"byteLength":32,
			"byteOffset":219684
		},
		{
			"buffer":0,
			"byteLength":24,
			"byteOffset":219716
		},
		{
			"buffer":0,
			"byteLength":24,
			"byteOffset":219740
		},
		{
			"buffer":0,
			"byteLength":32,
			"byteOffset":219764
		},
		{
			"buffer":0,
			"byteLength":24,
			"byteOffset":219796
		}
	],
	"buffers":[
		{
			"byteLength":219820,
			"uri":"robot.bin"
		}
	]
}
